<svg width="1400" height="900" viewBox="0 0 1400 900" fill="none" xmlns="http://www.w3.org/2000/svg">
  <rect width="1400" height="900" fill="#FCFCFC"/>
  <rect x="34" y="34" width="1332" height="832" rx="28" fill="#FFFFFF" stroke="#E7E7E7"/>
  <rect x="72" y="72" width="1256" height="70" rx="18" fill="#FAFAFA" stroke="#ECECEC"/>
  <rect x="104" y="96" width="252" height="22" rx="11" fill="#111111"/>
  <rect x="116" y="102" width="154" height="10" rx="5" fill="#FFFFFF"/>
  <rect x="282" y="102" width="54" height="10" rx="5" fill="#FFFFFF" fill-opacity="0.4"/>
  <rect x="72" y="176" width="560" height="626" rx="22" fill="#FAFAFA" stroke="#ECECEC"/>
  <rect x="664" y="176" width="664" height="626" rx="22" fill="#FFFFFF" stroke="#ECECEC"/>
  <rect x="104" y="208" width="496" height="240" rx="20" fill="#FFFFFF" stroke="#ECECEC"/>
  <path d="M136 392C182 326 234 306 278 322C322 338 366 386 416 370C466 354 500 262 568 252" stroke="#111111" stroke-width="10" stroke-linecap="round"/>
  <path d="M136 414C182 430 234 446 278 434C322 422 366 366 416 350C466 334 514 352 568 326" stroke="#B6B6B6" stroke-width="8" stroke-linecap="round"/>
  <circle cx="278" cy="322" r="10" fill="#111111"/>
  <circle cx="416" cy="370" r="10" fill="#111111"/>
  <circle cx="568" cy="252" r="10" fill="#111111"/>
  <rect x="104" y="480" width="236" height="132" rx="18" fill="#FFFFFF" stroke="#ECECEC"/>
  <rect x="132" y="512" width="98" height="12" rx="6" fill="#111111"/>
  <rect x="132" y="540" width="164" height="42" rx="14" fill="#111111"/>
  <rect x="154" y="556" width="118" height="12" rx="6" fill="#FFFFFF"/>
  <rect x="364" y="480" width="236" height="132" rx="18" fill="#FFFFFF" stroke="#ECECEC"/>
  <rect x="392" y="512" width="106" height="12" rx="6" fill="#111111"/>
  <rect x="392" y="540" width="168" height="42" rx="14" fill="#F3F3F3" stroke="#E6E6E6"/>
  <rect x="416" y="556" width="118" height="12" rx="6" fill="#8A8A8A"/>
  <rect x="104" y="644" width="496" height="126" rx="18" fill="#FFFFFF" stroke="#ECECEC"/>
  <rect x="136" y="676" width="96" height="12" rx="6" fill="#111111"/>
  <rect x="136" y="704" width="146" height="10" rx="5" fill="#8A8A8A"/>
  <rect x="296" y="694" width="90" height="30" rx="15" fill="#111111"/>
  <rect x="321" y="704" width="40" height="10" rx="5" fill="#FFFFFF"/>
  <rect x="724" y="222" width="544" height="148" rx="18" fill="#FAFAFA" stroke="#ECECEC"/>
  <rect x="754" y="254" width="164" height="12" rx="6" fill="#111111"/>
  <rect x="754" y="282" width="470" height="10" rx="5" fill="#8D8D8D"/>
  <rect x="754" y="302" width="438" height="10" rx="5" fill="#B7B7B7"/>
  <rect x="724" y="396" width="252" height="172" rx="18" fill="#FFFFFF" stroke="#ECECEC"/>
  <rect x="1008" y="396" width="260" height="172" rx="18" fill="#FFFFFF" stroke="#ECECEC"/>
  <rect x="752" y="430" width="94" height="12" rx="6" fill="#111111"/>
  <rect x="1036" y="430" width="122" height="12" rx="6" fill="#111111"/>
  <rect x="752" y="458" width="184" height="76" rx="14" fill="#111111"/>
  <rect x="1036" y="458" width="192" height="76" rx="14" fill="#F4F4F4" stroke="#E6E6E6"/>
  <rect x="782" y="490" width="126" height="12" rx="6" fill="#FFFFFF"/>
  <rect x="1068" y="490" width="126" height="12" rx="6" fill="#8A8A8A"/>
  <rect x="724" y="594" width="544" height="176" rx="18" fill="#FAFAFA" stroke="#ECECEC"/>
  <rect x="752" y="626" width="86" height="12" rx="6" fill="#111111"/>
  <rect x="752" y="660" width="142" height="40" rx="20" fill="#111111"/>
  <rect x="916" y="660" width="142" height="40" rx="20" fill="#F4F4F4" stroke="#E6E6E6"/>
  <rect x="1080" y="660" width="142" height="40" rx="20" fill="#F4F4F4" stroke="#E6E6E6"/>
  <rect x="780" y="674" width="86" height="12" rx="6" fill="#FFFFFF"/>
  <rect x="950" y="674" width="74" height="12" rx="6" fill="#8A8A8A"/>
  <rect x="1114" y="674" width="78" height="12" rx="6" fill="#8A8A8A"/>
</svg>
